<?xml version="1.0" standalone="no"?>
<!DOCTYPE svg PUBLIC "-//W3C//DTD SVG 20010904//EN"
 "http://www.w3.org/TR/2001/REC-SVG-20010904/DTD/svg10.dtd">
<svg version="1.0" xmlns="http://www.w3.org/2000/svg"
 width="512.000000pt" height="512.000000pt" viewBox="0 0 512.000000 512.000000"
 preserveAspectRatio="xMidYMid meet">
<metadata>
Created by potrace 1.14, written by Peter Selinger 2001-2017
</metadata>
<g transform="translate(0.000000,512.000000) scale(0.100000,-0.100000)"
fill="#000000" stroke="none">
<path d="M932 5094 c-176 -46 -409 -150 -574 -256 -195 -125 -305 -318 -251
-439 34 -76 243 -434 415 -709 231 -371 401 -685 430 -792 6 -27 15 -48 19
-48 4 0 24 22 43 49 47 64 183 191 259 243 169 115 419 188 645 188 45 0 82 2
82 4 0 2 -25 46 -55 97 -47 80 -71 143 -161 419 -253 779 -355 1070 -400 1141
-32 52 -91 97 -148 114 -75 22 -195 18 -304 -11z"/>
<path d="M4846 3408 c68 -252 14 -443 -187 -662 -35 -38 -147 -140 -249 -226
-288 -245 -330 -296 -330 -400 0 -114 69 -189 339 -368 277 -184 345 -255 343
-360 -2 -65 -35 -124 -111 -194 -113 -105 -238 -165 -586 -282 -237 -80 -464
-181 -490 -220 -24 -33 -19 -83 10 -110 72 -67 257 -135 535 -196 102 -22 223
-52 270 -66 110 -34 236 -92 224 -103 -11 -11 -163 -44 -289 -63 -128 -19
-585 -16 -785 5 -85 9 -233 24 -327 33 -95 10 -177 21 -183 24 -19 12 -61 306
-67 467 -4 96 -1 192 7 265 7 62 12 141 11 176 -1 59 -4 66 -65 155 -143 207
-315 510 -521 917 -84 168 -162 313 -172 322 -139 126 -571 21 -705 -171 -66
-94 -76 -48 181 -806 183 -540 236 -684 255 -701 14 -12 49 -30 78 -39 171
-57 376 -184 545 -337 95 -87 135 -129 256 -271 28 -33 56 -57 68 -57 10 0 19
4 19 9 0 22 -492 1107 -506 1116 -90 56 -127 151 -89 224 56 109 222 -41 186
-167 -9 -31 7 -73 225 -563 128 -291 234 -532 234 -534 0 -3 -9 -5 -20 -5 -29
0 -25 -34 6 -59 76 -60 193 -94 422 -121 521 -63 823 -53 1311 41 183 36 201
45 201 106 0 32 -8 44 -58 93 -111 106 -255 170 -512 226 -85 19 -186 41 -225
50 -87 20 -255 74 -255 83 0 3 87 42 193 85 494 204 752 347 893 498 75 79 98
129 98 208 0 78 -16 112 -87 187 -63 67 -134 112 -317 201 -168 82 -228 122
-272 181 -24 33 -31 53 -30 86 1 88 62 159 267 312 225 168 328 312 372 516
27 130 -4 346 -70 477 -41 82 -61 91 -41 18z"/>
<path d="M1775 3239 c-160 -23 -345 -96 -479 -189 -77 -53 -204 -176 -256
-247 l-31 -42 46 -172 c59 -220 74 -249 151 -287 23 -12 49 -33 59 -49 10 -15
28 -35 39 -45 25 -20 100 -48 132 -48 21 0 21 3 17 65 -5 56 -2 72 22 120 64
132 317 262 530 272 89 5 107 3 153 -17 29 -13 63 -35 76 -51 l24 -28 20 22
c47 50 65 142 41 204 -6 15 -12 53 -13 84 -1 52 -5 61 -62 135 -34 43 -92 125
-129 182 l-68 102 -106 -1 c-58 -1 -133 -5 -166 -10z"/>
</g>
</svg>
